<svg width="24" height="24" viewBox="0 0 24 24" fill="none" xmlns="http://www.w3.org/2000/svg">
<path d="M12.0766 2.43862C11.7533 2.43608 11.4306 2.51508 11.145 2.6767C9.31171 3.71006 7.29484 4.95159 5.19581 6.1607C5.19442 6.16161 5.19304 6.16254 5.19165 6.16347C4.15942 6.76817 3.32288 7.71792 3.17905 8.86263V8.86401C2.83857 11.6098 2.98853 14.3614 3.62752 17.1027C3.62886 17.1073 3.63025 17.1119 3.63168 17.1165C3.8224 17.8692 4.28217 18.5566 4.85253 19.1361C5.42289 19.7155 6.10482 20.1873 6.85821 20.3887C6.86281 20.3902 6.86743 20.3916 6.87206 20.3929C10.2861 21.2342 13.7176 21.2342 17.1316 20.3929C17.1363 20.3916 17.1409 20.3902 17.1455 20.3887C17.8989 20.1873 18.5809 19.7157 19.1512 19.1361C19.7215 18.5565 20.1817 17.8684 20.372 17.1151C20.373 17.111 20.3739 17.1068 20.3748 17.1027C21.0153 14.357 21.1659 11.6016 20.8233 8.85155L20.8219 8.85017C20.6781 7.7147 19.8524 6.77024 18.83 6.16347C18.8287 6.16254 18.8273 6.16161 18.8259 6.1607C16.7734 4.96219 14.802 3.72867 13.0068 2.68916C12.7234 2.52474 12.3999 2.44116 12.0766 2.43862ZM12.0669 3.83803C12.1368 3.8387 12.2073 3.86452 12.2953 3.91555C14.0592 4.93694 16.0352 6.17181 18.1116 7.38432C18.8297 7.81219 19.3531 8.54089 19.4156 9.02735C19.7372 11.6087 19.598 14.1834 18.9961 16.7691C18.8954 17.166 18.5708 17.7052 18.1407 18.1422C17.7107 18.5793 17.1781 18.9119 16.7814 19.0184C16.2521 19.1485 15.7249 19.1266 15.1966 19.2136C15.5066 17.4264 15.5156 15.5717 15.1356 13.8028C15.1359 13.7483 15.1299 13.694 15.1177 13.6408C15.1134 13.6217 15.1083 13.6028 15.1024 13.5841C15.1015 13.5804 15.1006 13.5767 15.0997 13.573C15.0979 13.5675 15.096 13.5619 15.0941 13.5564C15.0923 13.5518 15.0905 13.5472 15.0886 13.5426C15.0819 13.5252 15.0745 13.5081 15.0664 13.4913C15.0564 13.47 15.0453 13.4493 15.0332 13.4291C14.9688 13.3198 14.8763 13.2297 14.7653 13.1684C14.6543 13.107 14.5288 13.0766 14.402 13.0802C12.8698 12.4136 11.1616 12.4185 9.62936 13.083C9.45905 13.0709 9.29008 13.1206 9.15352 13.2231C9.01695 13.3256 8.92198 13.4739 8.88605 13.6408C8.8852 13.6445 8.88551 13.6483 8.88466 13.6519C8.87403 13.7001 8.86847 13.7493 8.86805 13.7986V13.8014C8.48783 15.5707 8.49705 17.4259 8.80715 19.2136C8.27875 19.1266 7.75157 19.1485 7.22226 19.0184C6.82554 18.9119 6.29316 18.5792 5.86298 18.1422C5.43363 17.706 5.10918 17.1683 5.00756 16.7719C4.40692 14.1902 4.26597 11.617 4.58538 9.0398V9.03842C4.64765 8.54748 5.18238 7.81117 5.90866 7.3857C8.02942 6.16394 10.0452 4.9223 11.8413 3.91001H11.8427C11.9278 3.86185 11.997 3.83736 12.0669 3.83803ZM12.0019 13.926C12.6105 13.9248 13.2048 14.1084 13.7778 14.3482C14.0975 16.0005 14.1011 17.7461 13.7584 19.3907C12.5882 19.4967 11.4155 19.4967 10.2453 19.3907C9.90321 17.7488 9.9064 16.0064 10.2246 14.3565C10.7969 14.1137 11.3923 13.9271 12.0019 13.926Z" fill="#696E98"/>
</svg>
