<svg width="24" height="24" viewBox="0 0 24 24" fill="none" xmlns="http://www.w3.org/2000/svg">
<path d="M12.002 9.9977C14.2111 9.9977 16.002 8.20683 16.002 5.9977C16.002 3.78856 14.2111 1.9977 12.002 1.9977C9.79281 1.9977 8.00195 3.78856 8.00195 5.9977C8.00195 8.20683 9.79281 9.9977 12.002 9.9977Z" stroke="#696E98" stroke-width="1.5"/>
<path d="M20.0009 17.9975C20.0023 17.8335 20.0029 17.6668 20.0029 17.4975C20.0029 15.0125 16.4209 12.9975 12.0029 12.9975C7.58493 12.9975 4.00293 15.0125 4.00293 17.4975C4.00293 19.9825 4.00293 21.9975 12.0029 21.9975C14.2339 21.9975 15.8429 21.8405 17.0029 21.5605" stroke="#696E98" stroke-width="1.5" stroke-linecap="round"/>
</svg>
