<svg width="16" height="16" viewBox="0 0 16 16" fill="none" xmlns="http://www.w3.org/2000/svg">
<path fill-rule="evenodd" clip-rule="evenodd" d="M2.04063 1.06012C3.039 0.0674873 4.68299 0.243864 5.51893 1.36119L6.55422 2.74267C7.23512 3.65162 7.17441 4.92153 6.36636 5.72466L6.17112 5.9199C6.14898 6.00186 6.14673 6.08793 6.16455 6.17093C6.21624 6.50564 6.49598 7.21443 7.66744 8.37933C8.83891 9.54423 9.55262 9.82316 9.89225 9.87566C9.97783 9.89287 10.0662 9.89034 10.1507 9.86827L10.4854 9.53521C11.204 8.8215 12.3066 8.68778 13.1958 9.17097L14.7627 10.0241C16.1056 10.7526 16.4444 12.5771 15.3452 13.6706L14.1794 14.829C13.8119 15.194 13.3181 15.4984 12.7159 15.555C11.2311 15.6936 7.77163 15.5164 4.13499 11.9011C0.741184 8.52617 0.0898216 5.58274 0.00696569 4.13235C-0.0340521 3.39895 0.312138 2.77876 0.753489 2.34069L2.04063 1.06012ZM4.53451 2.09869C4.11859 1.54331 3.34417 1.49901 2.90774 1.93298L1.61978 3.21273C1.34907 3.48181 1.21945 3.77878 1.23586 4.06262C1.30149 5.21522 1.82651 7.87071 5.00293 11.0291C8.33521 14.3417 11.4124 14.4409 12.6019 14.3294C12.8447 14.3072 13.0859 14.1809 13.3115 13.9569L14.4764 12.7978C14.9506 12.3269 14.8464 11.4688 14.1753 11.1046L12.6084 10.2522C12.1753 10.0176 11.6683 10.0947 11.3533 10.4081L10.98 10.7797L10.5453 10.3433C10.98 10.7797 10.9792 10.7805 10.9784 10.7805L10.9776 10.7822L10.9751 10.7846L10.9694 10.7895L10.9571 10.801C10.9225 10.8332 10.8851 10.8623 10.8455 10.888C10.7799 10.9315 10.6929 10.9799 10.5838 11.0201C10.3623 11.1029 10.0686 11.1472 9.70603 11.0914C8.99478 10.9823 8.05219 10.4975 6.79951 9.25219C5.54765 8.00689 5.05871 7.07004 4.94879 6.35961C4.89218 5.99702 4.9373 5.70333 5.02098 5.48183C5.06703 5.3572 5.13297 5.24084 5.21622 5.13728L5.24247 5.10857L5.25396 5.09627L5.25888 5.09134L5.26134 5.08888L5.26298 5.08724L5.49925 4.85262C5.85036 4.50233 5.89958 3.92234 5.56898 3.48017L4.53451 2.09869Z" fill="#696E98"/>
</svg>
