<svg width="22" height="19" viewBox="0 0 22 19" fill="none" xmlns="http://www.w3.org/2000/svg">
<path d="M13 16C13 16 14 16 15 18C15 18 18.177 13 21 12M4.5 9H4.491M10 17H9.5C5.741 17 3.862 17 2.607 16.01C2.40756 15.852 2.2222 15.677 2.053 15.487C1 14.307 1 12.537 1 9C1 5.463 1 3.694 2.053 2.513C2.22167 2.32367 2.40633 2.14967 2.607 1.991C3.862 1 5.741 1 9.5 1H12.5C16.259 1 18.138 1 19.392 1.99C19.5933 2.15 19.7783 2.32433 19.947 2.513C20.896 3.577 20.99 5.118 21 8V8.5" stroke="white" stroke-width="1.5" stroke-linecap="round" stroke-linejoin="round"/>
</svg>
