<svg width="16" height="17" viewBox="0 0 16 17" fill="none" xmlns="http://www.w3.org/2000/svg">
<path d="M7.997 11.98C7.55167 11.98 7.17167 11.8217 6.857 11.505C6.54233 11.1883 6.385 10.8073 6.385 10.362C6.385 9.91667 6.54333 9.53667 6.86 9.222C7.17667 8.90733 7.558 8.75 8.004 8.75C8.45 8.75 8.83 8.90867 9.144 9.226C9.458 9.54333 9.61533 9.92433 9.616 10.369C9.61667 10.8137 9.458 11.1937 9.14 11.509C8.822 11.8243 8.441 11.9817 7.997 11.981M4.375 4.25H11.625L13.491 0.5H2.51L4.375 4.25ZM4.631 16.5H11.369C12.6557 16.5 13.749 16.0497 14.649 15.149C15.5497 14.2483 16 13.153 16 11.863C16 11.3243 15.9077 10.7997 15.723 10.289C15.5383 9.77833 15.2717 9.31333 14.923 8.894L11.881 5.25H4.119L1.077 8.894C0.728333 9.31333 0.461667 9.77833 0.277 10.289C0.0923333 10.799 0 11.3237 0 11.863C0 13.153 0.450333 14.2483 1.351 15.149C2.25167 16.0497 3.345 16.5 4.631 16.5Z" fill="#72779E"/>
</svg>
