<svg width="24" height="24" viewBox="0 0 24 24" fill="none" xmlns="http://www.w3.org/2000/svg">
<path fill-rule="evenodd" clip-rule="evenodd" d="M6.4207 2.2445C6.6427 2.2445 6.85561 2.33268 7.01259 2.48966C7.16957 2.64664 7.25775 2.85955 7.25775 3.08155V4.94316C10.4137 4.66263 13.5884 4.66263 16.7444 4.94316V3.08155C16.7444 2.85955 16.8326 2.64664 16.9896 2.48966C17.1465 2.33268 17.3594 2.2445 17.5814 2.2445C17.8034 2.2445 18.0164 2.33268 18.1733 2.48966C18.3303 2.64664 18.4185 2.85955 18.4185 3.08155V5.10834C19.2327 5.22381 19.9868 5.60256 20.5656 6.18678C21.1443 6.771 21.516 7.52857 21.6239 8.34384L21.721 9.07264C22.1272 12.1374 22.0915 15.2445 21.6161 18.3003C21.5014 19.036 21.1457 19.7127 20.6047 20.2242C20.0637 20.7357 19.3681 21.053 18.6272 21.1262L17.2957 21.2579C13.7745 21.6048 10.2277 21.6048 6.70641 21.2579L5.37494 21.1262C4.63403 21.053 3.93845 20.7357 3.39745 20.2242C2.85646 19.7127 2.50071 19.036 2.38609 18.3003C1.91054 15.2452 1.87521 12.1378 2.28118 9.07264L2.37828 8.34384C2.48612 7.52857 2.8578 6.771 3.43658 6.18678C4.01535 5.60256 4.76942 5.22381 5.58364 5.10834V3.08155C5.58364 2.85955 5.67183 2.64664 5.82881 2.48966C5.98579 2.33268 6.1987 2.2445 6.4207 2.2445ZM6.91735 6.65634C10.2991 6.32263 13.7031 6.32263 17.0848 6.65634L18.0948 6.75678C19.0625 6.85165 19.8359 7.60054 19.9643 8.56371L20.0614 9.29251C20.0948 9.54697 20.1254 9.80181 20.1529 10.057H3.84926C3.87679 9.80181 3.9073 9.54697 3.94078 9.29251L4.03788 8.56371C4.09982 8.09564 4.31823 7.66226 4.65762 7.33402C4.99701 7.00578 5.43742 6.80195 5.9073 6.75567L6.91735 6.65634ZM3.71645 11.7311C3.60688 13.8405 3.71534 15.9555 4.04011 18.0425C4.09764 18.4115 4.27605 18.7508 4.54734 19.0074C4.81863 19.2639 5.16744 19.4231 5.539 19.4599L6.87048 19.5916C10.2823 19.9287 13.7198 19.9287 17.1317 19.5916L18.4631 19.4599C18.8347 19.4231 19.1835 19.2639 19.4548 19.0074C19.7261 18.7508 19.9045 18.4115 19.962 18.0425C20.2879 15.9532 20.3951 13.8383 20.2857 11.7311H3.71645Z" fill="#696E98"/>
</svg>
