<svg width="28" height="28" viewBox="0 0 28 28" fill="none" xmlns="http://www.w3.org/2000/svg">
<path d="M17.5677 24.4998V23.3331H21.448C21.6277 23.3331 21.7926 23.2584 21.9427 23.1091C22.0928 22.9598 22.1674 22.7949 22.1667 22.6144V12.3851H5.83333V16.9164H4.66667V7.71845C4.66667 7.181 4.84672 6.73261 5.20683 6.37328C5.56694 6.01395 6.01533 5.83389 6.552 5.83311H8.61583V3.23145H9.87233V5.83311H18.2187V3.23145H19.3853V5.83311H21.4492C21.9858 5.83311 22.4342 6.01317 22.7943 6.37328C23.1544 6.73339 23.3341 7.18178 23.3333 7.71845V22.6156C23.3333 23.1523 23.1537 23.6007 22.7943 23.9608C22.435 24.3209 21.9862 24.5006 21.448 24.4998H17.5677ZM9.33333 27.1691L8.5295 26.3664L12.0948 22.7498H1.75V21.5831H12.0948L8.5295 17.9664L9.33333 17.1638L14.3372 22.1664L9.33333 27.1691Z" fill="black"/>
</svg>
