<svg width="24" height="24" viewBox="0 0 24 24" fill="none" xmlns="http://www.w3.org/2000/svg">
<path d="M9.00003 10.4991C9.00003 10.3002 9.07905 10.1095 9.2197 9.96882C9.36035 9.82817 9.55112 9.74915 9.75003 9.74915H14.25C14.4489 9.74915 14.6397 9.82817 14.7804 9.96882C14.921 10.1095 15 10.3002 15 10.4991C15 10.6981 14.921 10.8888 14.7804 11.0295C14.6397 11.1701 14.4489 11.2491 14.25 11.2491H9.75003C9.55112 11.2491 9.36035 11.1701 9.2197 11.0295C9.07905 10.8888 9.00003 10.6981 9.00003 10.4991ZM9.75003 12.7491C9.55112 12.7491 9.36035 12.8282 9.2197 12.9688C9.07905 13.1095 9.00003 13.3002 9.00003 13.4991C9.00003 13.6981 9.07905 13.8888 9.2197 14.0295C9.36035 14.1701 9.55112 14.2491 9.75003 14.2491H12.75C12.9489 14.2491 13.1397 14.1701 13.2804 14.0295C13.421 13.8888 13.5 13.6981 13.5 13.4991C13.5 13.3002 13.421 13.1095 13.2804 12.9688C13.1397 12.8282 12.9489 12.7491 12.75 12.7491H9.75003ZM3.00003 11.9991C3.00041 10.0177 3.65467 8.0918 4.8613 6.52014C6.06794 4.94849 7.7595 3.81896 9.67359 3.30677C11.5877 2.79458 13.6173 2.92837 15.4476 3.68738C17.2779 4.44639 18.8065 5.7882 19.7964 7.50464C20.7863 9.22109 21.1821 11.2162 20.9224 13.1806C20.6627 15.1449 19.762 16.9686 18.36 18.3688C16.958 19.769 15.1332 20.6675 13.1685 20.9247C11.2039 21.182 9.20923 20.7837 7.49403 19.7916L3.98703 20.9617C3.85746 21.0049 3.71854 21.012 3.58526 20.982C3.45198 20.9521 3.3294 20.8864 3.23075 20.7919C3.1321 20.6974 3.06112 20.5778 3.02549 20.4459C2.98985 20.3141 2.9909 20.175 3.02853 20.0436L4.09653 16.3071C3.37656 14.9854 2.99956 13.5042 3.00003 11.9991ZM12 4.49915C10.6758 4.49907 9.37516 4.8496 8.23031 5.51511C7.08546 6.18062 6.13723 7.13739 5.48201 8.28815C4.82678 9.43891 4.48792 10.7426 4.49986 12.0668C4.51181 13.391 4.87414 14.6884 5.55003 15.8272C5.60203 15.9151 5.63551 16.0128 5.6484 16.1142C5.6613 16.2155 5.65335 16.3185 5.62503 16.4166L4.86153 19.0867L7.34853 18.2586C7.45415 18.2234 7.5663 18.2121 7.67682 18.2256C7.78735 18.2391 7.89349 18.277 7.98753 18.3367C8.97043 18.9587 10.0846 19.3436 11.2418 19.4609C12.3991 19.5782 13.5678 19.4248 14.6555 19.0126C15.7433 18.6005 16.7203 17.941 17.5092 17.0863C18.2982 16.2316 18.8776 15.2051 19.2015 14.0879C19.5255 12.9707 19.5852 11.7935 19.3758 10.6493C19.1664 9.50509 18.6938 8.42526 17.9953 7.49517C17.2967 6.56507 16.3914 5.8102 15.3509 5.29022C14.3104 4.77025 13.1632 4.49942 12 4.49915Z" fill="#696E98"/>
</svg>
