<svg width="35" height="36" viewBox="0 0 35 36" fill="none" xmlns="http://www.w3.org/2000/svg">
<rect x="0.000488281" y="0.500214" width="35" height="35" rx="10" fill="white"/>
<rect x="0.000488281" y="0.500214" width="35" height="35" rx="10" fill="url(#paint0_linear_173_6627)"/>
<path fill-rule="evenodd" clip-rule="evenodd" d="M8.74136 10.627C10.6828 8.27054 13.0174 7.57356 15.6534 9.05623L19.5357 12.3856C19.5963 12.4375 19.6666 12.477 19.7425 12.5018C19.8184 12.5266 19.8985 12.5362 19.9781 12.53C20.0577 12.5239 20.1353 12.5021 20.2065 12.4659C20.2777 12.4298 20.3411 12.38 20.3931 12.3193C20.445 12.2587 20.4845 12.1884 20.5093 12.1125C20.5341 12.0366 20.5437 11.9565 20.5375 11.8769C20.5314 11.7973 20.5096 11.7197 20.4735 11.6485C20.4373 11.5773 20.3875 11.5139 20.3268 11.4619L19.0008 10.0236C19.1204 9.9526 19.2452 9.87623 19.3751 9.79684C21.0083 8.79813 23.4227 7.32167 25.7532 10.0236C27.5147 12.0659 27.4418 14.183 26.8305 16.2612C26.3238 17.984 25.7409 19.5737 25.2088 21.0247C24.8284 22.062 24.474 23.0284 24.1921 23.9218C23.5711 25.887 23.0588 26.587 21.9286 27.541C21.2012 28.1561 20.3803 27.0946 19.5162 25.9774L19.5144 25.9751L19.5124 25.9725C18.7638 25.0047 17.983 23.9953 17.2029 23.9978C16.409 24.0002 15.6157 25.0118 14.8564 25.9801L14.8555 25.9811L14.8549 25.9819C13.9789 27.0985 13.1485 28.157 12.4164 27.541C10.938 26.2965 10.289 24.5769 9.61152 21.8181C9.4816 21.29 9.28438 20.6567 9.06707 19.9589L9.06341 19.9472L9.06231 19.9436C8.14484 16.9968 6.86933 12.8999 8.74136 10.627ZM13.423 18.0068C15.6694 18.0068 17.4914 19.8272 17.4996 22.0758C17.4996 19.8202 19.3247 17.9917 21.5762 17.9917C19.3297 17.9917 17.5077 16.1713 17.4996 13.9227C17.4996 16.1782 15.6744 18.0068 13.423 18.0068Z" fill="white"/>
<defs>
<linearGradient id="paint0_linear_173_6627" x1="17.5005" y1="0.500214" x2="17.5005" y2="35.5002" gradientUnits="userSpaceOnUse">
<stop stop-color="#8B3DDF"/>
<stop offset="1" stop-color="#DF3D77"/>
</linearGradient>
</defs>
</svg>
