<svg width="24" height="24" viewBox="0 0 24 24" fill="none" xmlns="http://www.w3.org/2000/svg">
<path d="M7.00269 17.9998V15.9998M12.0027 17.9998V14.9998M17.0027 17.9998V12.9998M2.50269 11.9998C2.50269 7.5218 2.50269 5.28181 3.89369 3.89081C5.28469 2.49981 7.52368 2.49981 12.0027 2.49981C16.4807 2.49981 18.7207 2.49981 20.1117 3.89081C21.5027 5.28181 21.5027 7.5208 21.5027 11.9998C21.5027 16.4778 21.5027 18.7178 20.1117 20.1088C18.7207 21.4998 16.4817 21.4998 12.0027 21.4998C7.52468 21.4998 5.28469 21.4998 3.89369 20.1088C2.50269 18.7178 2.50269 16.4788 2.50269 11.9998Z" stroke="#696E98" stroke-width="1.5" stroke-linecap="round" stroke-linejoin="round"/>
<path d="M5.99487 11.4852C8.14987 11.5572 13.0369 11.2322 15.8169 6.82017M13.9949 6.28717L15.8709 5.98517C16.0989 5.95617 16.4349 6.13717 16.5179 6.35217L17.0129 7.99017" stroke="#696E98" stroke-width="1.5" stroke-linecap="round" stroke-linejoin="round"/>
</svg>
