<svg width="20" height="14" viewBox="0 0 20 14" fill="none" xmlns="http://www.w3.org/2000/svg">
<path d="M6.25 0C3.933 0.006 2.693 0.0629998 1.778 0.674C1.34106 0.965911 0.965911 1.34106 0.674 1.778C0 2.787 0 4.19 0 7C0 9.81 0 11.213 0.674 12.222C0.965911 12.6589 1.34106 13.0341 1.778 13.326C2.693 13.937 3.933 13.994 6.25 14V9.906C5.606 9.73953 5.03555 9.36382 4.6283 8.8379C4.22104 8.31199 4.00005 7.66567 4.00005 7.0005C4.00005 6.33533 4.22104 5.68901 4.6283 5.1631C5.03555 4.63718 5.606 4.26147 6.25 4.095V0ZM7.75 14H12.25V0H7.75V14ZM13.75 0V4.095C14.3936 4.26181 14.9635 4.6376 15.3704 5.16338C15.7773 5.68917 15.998 6.33517 15.998 7C15.998 7.66483 15.7773 8.31083 15.3704 8.83662C14.9635 9.3624 14.3936 9.73819 13.75 9.905V14C16.067 13.994 17.308 13.937 18.222 13.326C18.6589 13.0341 19.0341 12.6589 19.326 12.222C20 11.213 20 9.81 20 7C20 4.19 20 2.787 19.326 1.778C19.0341 1.34106 18.6589 0.965911 18.222 0.674C17.307 0.0629998 16.067 0.005 13.75 0Z" fill="#72779E"/>
</svg>
