<svg width="30" height="34" viewBox="0 0 30 34" fill="none" xmlns="http://www.w3.org/2000/svg">
<circle cx="14.9155" cy="16.7251" r="5.87645" fill="#3900DB"/>
<path d="M27.5274 14.471L24.2429 13.0952C23.3359 12.7152 22.9086 11.672 23.2885 10.7649L24.6644 7.48038" stroke="#3900DB" stroke-width="3.76699"/>
<path d="M18.4004 3.73245L15.9121 6.27996C15.225 6.98343 14.0977 6.99669 13.3942 6.30957L10.8467 3.82129" stroke="#3900DB" stroke-width="3.76699"/>
<path d="M18.4004 30.041L15.9121 27.4935C15.225 26.79 14.0977 26.7767 13.3942 27.4639L10.8467 29.9521" stroke="#3900DB" stroke-width="3.76699"/>
<path d="M2.06339 14.471L5.34795 13.0952C6.25496 12.7152 6.68224 11.672 6.30231 10.7649L4.92646 7.48038" stroke="#3900DB" stroke-width="3.76699"/>
<path d="M27.5274 19.7653L24.2429 21.1412C23.3359 21.5211 22.9086 22.5644 23.2885 23.4714L24.6644 26.7559" stroke="#3900DB" stroke-width="3.76699"/>
<path d="M2.06339 19.7653L5.34795 21.1412C6.25496 21.5211 6.68224 22.5644 6.30231 23.4714L4.92646 26.7559" stroke="#3900DB" stroke-width="3.76699"/>
</svg>
